<?xml version="1.0" standalone="no"?>
<!DOCTYPE svg PUBLIC "-//W3C//DTD SVG 20010904//EN"
 "http://www.w3.org/TR/2001/REC-SVG-20010904/DTD/svg10.dtd">
<svg version="1.0" xmlns="http://www.w3.org/2000/svg"
 width="384.000000pt" height="384.000000pt" viewBox="0 0 384.000000 384.000000"
 preserveAspectRatio="xMidYMid meet">
<metadata>
Created by potrace 1.10, written by Peter Selinger 2001-2011
</metadata>
<g transform="translate(0.000000,384.000000) scale(0.100000,-0.100000)"
fill="#000000" stroke="none">
<path d="M1210 3744 c-40 -5 -92 -29 -128 -59 -46 -37 -82 -80 -82 -97 0 -9
-2 -23 -5 -31 -5 -10 3 -14 29 -13 28 1 41 10 74 51 51 64 109 85 241 85 102
0 187 -23 228 -62 24 -23 67 -93 78 -129 9 -27 -32 -126 -66 -163 -15 -15 -59
-41 -98 -57 -61 -24 -86 -29 -159 -29 -75 1 -93 4 -127 25 -52 32 -74 31 -121
-5 -29 -24 -46 -30 -73 -28 -49 4 -48 32 4 67 l40 27 2 102 c1 56 -3 102 -7
102 -14 0 -32 -40 -26 -56 3 -8 -3 -23 -14 -34 -11 -11 -20 -33 -20 -51 0 -39
-60 -99 -99 -99 -120 -1 -251 -10 -273 -19 -19 -7 -28 -18 -28 -33 0 -17 -13
-30 -52 -52 -42 -24 -62 -29 -114 -28 l-63 1 -3 -42 c-2 -35 -7 -43 -26 -45
-28 -4 -28 -7 3 -40 28 -31 33 -78 11 -120 -19 -38 -46 -163 -46 -214 0 -81
42 -187 95 -242 42 -43 137 -86 190 -86 39 0 75 -37 75 -76 0 -20 -4 -44 -10
-54 -7 -14 -6 -23 5 -34 8 -8 15 -19 15 -25 0 -7 23 -11 56 -11 45 0 62 -5 86
-25 16 -14 35 -25 42 -25 7 0 21 -9 31 -20 10 -11 24 -20 31 -20 7 0 26 -17
41 -37 15 -21 33 -43 39 -50 16 -17 25 -102 15 -144 -16 -69 -104 -155 -177
-173 -16 -4 -36 -13 -44 -21 -27 -24 -158 -34 -263 -20 -53 6 -102 16 -109 22
-7 6 -29 15 -48 22 -59 19 -119 79 -141 141 -20 59 -17 115 7 124 8 3 14 14
14 25 0 10 26 43 60 74 33 30 60 59 60 66 0 16 -35 14 -50 -4 -7 -8 -18 -15
-24 -15 -6 0 -35 -31 -64 -70 -48 -64 -52 -74 -52 -124 0 -35 -5 -58 -15 -66
-18 -15 -20 -55 -3 -77 60 -78 198 -173 251 -173 13 0 37 -4 53 -9 16 -5 45
-12 65 -15 25 -4 38 -13 42 -25 2 -11 1 -78 -3 -149 -5 -93 -11 -135 -23 -152
-15 -21 -14 -25 5 -51 18 -24 20 -38 16 -104 -6 -85 -24 -115 -87 -142 -33
-14 -33 -15 -28 -66 2 -29 8 -60 12 -69 10 -25 -21 -24 -63 2 -40 25 -42 25
-42 0 0 -11 16 -34 35 -51 41 -36 44 -45 54 -156 8 -82 21 -136 42 -173 5 -8
13 -25 18 -36 16 -37 124 -134 176 -158 136 -64 181 -79 250 -83 38 -3 87 -11
108 -19 29 -11 95 -14 283 -14 174 0 252 -4 267 -12 23 -13 407 -30 697 -31
169 -1 345 14 378 32 11 6 30 11 42 11 30 0 149 63 198 105 53 46 122 148 122
181 0 14 7 41 15 61 19 46 19 169 0 203 -8 14 -14 53 -15 90 0 37 -6 77 -15
94 -8 15 -15 46 -15 67 0 21 -7 60 -17 86 -11 35 -16 80 -15 163 1 85 -3 121
-14 137 -8 14 -14 48 -14 88 0 36 -7 82 -15 102 -8 19 -15 62 -15 94 0 53 2
59 21 59 12 0 51 -14 87 -32 l67 -31 174 1 c170 1 175 0 206 -24 84 -64 188
-95 217 -66 21 21 10 88 -23 143 -39 65 -39 89 1 139 29 36 30 42 30 137 0 94
-2 102 -29 140 -67 93 -153 154 -232 167 -23 4 -48 11 -55 17 -18 15 -258 5
-326 -13 -31 -9 -78 -30 -103 -47 -73 -49 -75 -48 -75 82 0 61 4 117 8 123 4
6 32 19 62 29 89 28 121 47 163 96 63 73 70 102 74 288 3 131 1 172 -12 203
-8 21 -15 52 -15 68 0 16 -4 31 -9 34 -5 4 -19 26 -31 50 -26 54 -91 116 -159
150 -40 21 -65 26 -119 26 -65 0 -73 3 -135 44 -58 39 -75 45 -141 51 -55 5
-102 3 -168 -10 -51 -9 -106 -19 -123 -21 -119 -18 -229 -38 -282 -50 -34 -8
-88 -14 -120 -15 -32 0 -78 -4 -103 -9 -82 -16 -84 -16 -88 4 -2 10 5 30 15
45 24 31 36 116 27 178 -6 39 -16 55 -71 109 -35 35 -70 64 -78 64 -7 0 -20 7
-28 15 -11 11 -49 16 -148 19 -74 2 -150 2 -169 0z m1382 -432 c18 -18 -12
-45 -54 -48 -18 -1 -62 -7 -97 -13 -36 -5 -68 -8 -73 -5 -17 11 -7 43 20 64
24 19 37 21 109 18 48 -2 87 -8 95 -16z m-284 -18 c35 -10 27 -30 -36 -92 -46
-44 -64 -72 -85 -127 -15 -38 -29 -86 -33 -105 -3 -19 -12 -51 -19 -70 -8 -19
-28 -111 -46 -204 -28 -149 -31 -175 -20 -210 7 -23 13 -63 14 -90 2 -47 4
-50 35 -58 38 -10 40 -23 7 -62 -21 -27 -30 -30 -104 -34 -94 -5 -135 7 -156
49 -19 35 -19 69 0 139 8 30 15 95 15 143 0 57 5 98 14 116 8 15 18 56 22 92
4 35 13 73 20 84 13 19 39 120 51 193 6 40 -10 42 -34 5 -10 -16 -23 -34 -29
-40 -7 -7 -15 -32 -19 -55 -4 -23 -15 -54 -25 -68 -11 -14 -21 -53 -24 -92 -4
-36 -14 -84 -22 -105 -13 -30 -15 -62 -12 -155 5 -112 4 -117 -16 -122 -33 -9
-772 -6 -961 4 -243 13 -311 24 -360 59 -87 63 -127 191 -92 298 9 27 20 69
26 94 21 92 66 173 124 224 85 73 207 107 248 69 17 -15 20 -15 45 5 36 28 60
27 89 -5 23 -24 29 -26 72 -19 27 4 136 11 243 15 107 5 233 16 280 24 47 8
119 15 160 16 41 0 100 7 130 15 73 20 200 20 200 1 0 -19 -22 -26 -83 -26
-29 -1 -72 -6 -97 -11 -25 -6 -108 -17 -185 -25 -77 -7 -160 -19 -185 -25 -42
-11 -327 -35 -520 -44 -75 -3 -87 -1 -106 16 -23 22 -24 21 -52 -30 -10 -20
-10 -27 4 -42 14 -16 32 -18 158 -15 77 2 148 6 156 10 16 6 302 32 495 45 61
4 116 11 124 15 7 5 59 15 114 22 88 11 102 11 124 -3 13 -9 25 -14 26 -12 2
2 20 29 40 60 56 87 95 116 164 124 32 3 65 8 73 9 8 2 17 4 20 5 3 0 15 -2
28 -5z m584 -83 c64 -29 106 -70 127 -123 5 -12 19 -48 32 -78 19 -48 22 -74
23 -205 l1 -150 -32 -46 c-44 -64 -94 -99 -171 -119 -58 -16 -128 -39 -141
-47 -2 -1 2 -9 8 -17 12 -15 10 -112 -4 -251 -5 -50 0 -101 29 -292 8 -56 17
-183 20 -281 2 -104 9 -188 15 -200 6 -12 14 -49 16 -84 6 -65 19 -159 37
-263 5 -32 11 -108 13 -168 3 -81 8 -113 19 -126 9 -10 16 -31 16 -47 0 -17 7
-54 16 -84 17 -59 15 -141 -7 -205 -19 -53 -153 -190 -197 -200 -18 -3 -34
-11 -37 -16 -8 -12 -62 -12 -70 1 -4 6 6 13 22 16 35 7 90 74 71 86 -23 14
-36 9 -42 -17 -4 -14 -12 -25 -20 -25 -7 0 -24 -9 -38 -19 -32 -26 -111 -42
-238 -50 -73 -4 -113 -11 -130 -23 -30 -20 -101 -28 -107 -11 -2 6 12 16 31
23 20 6 36 15 36 20 0 13 -66 24 -93 15 -12 -4 -92 -9 -176 -11 -124 -3 -161
0 -185 12 -34 16 -119 29 -264 40 -50 3 -95 10 -98 15 -2 5 -24 6 -47 3 -24
-4 -68 0 -102 9 -74 19 -265 31 -284 18 -8 -5 -11 -16 -8 -24 5 -12 31 -15
151 -16 153 -1 176 -5 176 -27 0 -11 -30 -14 -157 -14 -141 0 -161 2 -188 20
-17 11 -47 20 -69 20 -26 0 -50 8 -72 25 -18 14 -44 25 -59 25 -14 0 -28 7
-31 15 -4 8 -11 15 -18 15 -32 0 -107 119 -126 199 -14 61 -1 198 26 259 8 18
18 62 23 97 5 35 12 69 16 75 3 5 13 84 21 174 8 90 21 183 29 206 8 23 15 69
15 102 0 84 8 94 84 107 143 25 276 125 312 234 23 69 20 121 -9 188 -41 91
-129 164 -247 205 l-65 22 2 43 c4 90 4 90 88 87 87 -2 100 -11 91 -63 -5 -26
-12 -35 -27 -35 -28 0 -61 -19 -54 -31 4 -5 26 -9 50 -9 41 0 45 3 51 28 12
56 23 71 61 81 41 12 481 13 687 2 l119 -6 13 -45 c8 -27 28 -59 49 -80 26
-25 35 -42 35 -66 0 -29 6 -35 59 -63 80 -41 154 -49 199 -22 60 39 73 73 70
186 -3 99 -3 100 21 103 13 2 28 -1 34 -7 16 -16 54 -13 61 4 3 8 13 15 23 15
10 0 40 18 67 40 27 22 59 40 72 40 l24 0 -6 -393 c-7 -384 -4 -472 18 -465 6
2 19 26 29 53 16 42 19 78 19 228 0 112 -6 213 -15 273 -9 53 -17 163 -18 244
-2 128 0 150 15 167 19 21 72 198 83 276 3 26 10 47 15 47 23 0 24 -149 2
-235 -11 -45 -28 -142 -38 -223 -6 -49 -4 -54 12 -50 19 3 27 32 41 151 4 43
9 51 37 63 17 7 25 13 17 14 -10 0 -12 9 -7 33 4 17 7 43 6 57 -4 133 4 156
63 187 16 8 26 20 24 26 -2 7 2 20 10 29 8 9 13 25 10 35 -4 14 -7 12 -17 -13
-11 -27 -22 -34 -66 -44 -60 -15 -84 -5 -84 35 0 28 54 77 100 90 28 9 35 16
35 35 0 14 4 31 8 38 11 17 52 15 67 -3 18 -22 33 -4 24 30 -8 32 -54 55 -111
55 -54 0 -102 -36 -155 -117 -40 -60 -48 -82 -67 -183 -11 -63 -21 -137 -21
-163 0 -62 -34 -128 -97 -189 -42 -41 -59 -50 -127 -68 -79 -20 -200 -27 -210
-12 -7 11 40 332 58 394 8 29 25 90 37 135 12 45 36 108 53 140 29 54 35 59
86 76 30 10 93 20 140 23 47 3 103 12 125 19 102 35 173 34 257 -4z m-682
-994 c0 -68 -76 -127 -167 -130 -47 -2 -57 1 -74 22 -27 33 -25 61 5 61 13 0
27 -7 30 -16 5 -12 13 -14 34 -9 36 9 51 23 34 34 -11 7 -10 10 3 15 9 3 27 6
40 6 13 0 29 10 39 25 9 14 25 25 36 25 16 0 20 -7 20 -33z m1215 -83 c60 -28
146 -103 162 -143 20 -47 14 -159 -10 -192 -9 -13 -27 -36 -39 -51 -18 -23
-20 -31 -9 -50 66 -123 66 -138 6 -108 -22 11 -55 33 -73 50 -35 32 -97 41
-120 18 -6 -6 -48 -13 -93 -16 -65 -4 -97 0 -158 18 -114 34 -151 51 -189 90
-97 99 -95 236 6 312 87 66 141 90 237 102 103 14 213 2 280 -30z m-1970
-1915 c52 -1 56 -2 30 -10 -36 -11 -183 0 -192 14 -4 7 12 8 48 4 30 -4 81 -7
114 -8z"/>
<path d="M567 3026 c-4 -10 -5 -21 -2 -24 9 -9 17 6 13 25 -3 17 -4 17 -11 -1z"/>
<path d="M2036 2998 c-8 -33 15 -53 43 -39 24 13 27 31 9 49 -19 19 -45 14
-52 -10z"/>
<path d="M566 2716 c6 -15 34 -30 42 -22 10 11 -9 36 -27 36 -14 0 -19 -5 -15
-14z"/>
<path d="M1991 2692 c-8 -16 -7 -21 5 -26 27 -11 35 -7 32 16 -4 29 -24 34
-37 10z"/>
<path d="M1428 2683 c-50 -8 -30 -63 23 -63 33 0 53 22 44 50 -6 20 -13 21
-67 13z"/>
<path d="M475 2660 c-7 -12 2 -30 16 -30 12 0 12 27 0 35 -5 3 -12 1 -16 -5z"/>
<path d="M605 2530 c-4 -6 15 -10 49 -10 31 0 56 5 56 10 0 6 -22 10 -49 10
-28 0 -53 -4 -56 -10z"/>
<path d="M1920 2332 c0 -11 7 -23 16 -26 24 -9 87 -7 104 4 13 9 13 11 0 20
-8 5 -28 10 -45 10 -16 0 -40 3 -52 6 -18 5 -23 2 -23 -14z"/>
<path d="M2486 2975 c-9 -25 -7 -75 4 -75 12 0 27 28 31 60 5 29 -25 41 -35
15z"/>
<path d="M2902 2978 c5 -15 28 -18 29 -3 0 6 -7 12 -17 13 -10 3 -15 -1 -12
-10z"/>
<path d="M2991 2868 c1 -71 2 -77 10 -43 11 56 11 113 -1 120 -6 4 -10 -24 -9
-77z"/>
<path d="M2448 2767 c-3 -51 -11 -103 -17 -116 -19 -34 -3 -40 25 -8 21 25 24
38 24 107 0 43 -3 85 -6 94 -13 35 -22 11 -26 -77z"/>
<path d="M2270 2530 c0 -5 11 -10 25 -10 14 0 25 5 25 10 0 6 -11 10 -25 10
-14 0 -25 -4 -25 -10z"/>
<path d="M2391 2301 c-27 -21 -21 -41 13 -41 27 0 46 18 46 42 0 23 -28 23
-59 -1z"/>
<path d="M1056 2260 c-3 -8 -6 -24 -8 -35 -2 -11 -12 -21 -23 -23 -45 -7 -49
-12 -27 -28 19 -13 24 -13 46 1 28 19 41 58 27 83 -8 14 -10 15 -15 2z"/>
<path d="M2617 2234 c-4 -4 -7 -18 -7 -31 0 -28 23 -27 28 1 4 20 -11 40 -21
30z"/>
<path d="M1221 2165 c-20 -55 -26 -60 -71 -58 l-42 2 25 -32 c19 -25 33 -33
64 -35 35 -3 43 1 66 32 15 19 27 38 27 43 0 4 -14 24 -30 43 l-29 35 -10 -30z"/>
<path d="M1810 1780 c-13 -11 -30 -20 -39 -20 -9 0 -27 -15 -41 -33 -22 -27
-26 -44 -28 -111 -4 -113 1 -128 56 -163 73 -46 120 -56 173 -38 49 17 84 47
105 87 16 31 18 108 5 155 -12 41 -61 103 -82 103 -9 0 -26 9 -39 20 -13 11
-37 20 -55 20 -18 0 -42 -9 -55 -20z m101 -47 c15 -16 37 -35 50 -44 19 -13
24 -27 27 -81 4 -56 1 -67 -15 -79 -11 -8 -25 -24 -32 -36 -11 -21 -16 -22
-74 -16 -50 5 -66 11 -84 32 -31 37 -38 77 -19 107 9 13 15 37 14 52 -2 21 2
28 20 30 13 2 22 10 22 21 0 46 53 54 91 14z"/>
<path d="M2263 1592 c6 -15 14 -31 19 -36 13 -16 9 -50 -8 -74 -21 -30 -68
-29 -99 3 -29 28 -32 51 -8 77 25 28 6 35 -22 8 -30 -29 -33 -70 -5 -95 11
-10 20 -23 20 -30 0 -6 28 -20 62 -30 78 -23 106 -11 127 54 12 40 12 46 -8
87 -13 24 -23 44 -24 44 -1 0 -16 4 -34 9 -32 9 -32 9 -20 -17z"/>
<path d="M2470 1515 c-13 -33 -13 -45 1 -84 7 -20 17 -31 27 -29 15 3 20 21
25 93 2 35 -1 40 -20 43 -17 3 -26 -3 -33 -23z"/>
<path d="M747 1454 c-4 -4 -7 -41 -7 -83 0 -42 -6 -96 -14 -121 -7 -25 -16
-115 -20 -200 -4 -85 -14 -180 -22 -210 -21 -80 -18 -152 6 -183 24 -31 25
-41 4 -77 -17 -27 -14 -60 5 -60 5 0 12 10 15 23 l7 22 16 -23 c8 -12 24 -22
34 -22 10 0 23 -9 29 -20 6 -11 23 -23 38 -26 15 -4 41 -23 58 -42 32 -38 77
-50 192 -51 29 -1 63 -6 75 -13 14 -8 101 -14 237 -19 118 -3 233 -11 255 -17
54 -14 349 -20 353 -7 6 18 -40 23 -211 24 -131 1 -173 4 -190 16 -17 11 -78
18 -226 26 -123 6 -219 16 -243 25 -23 8 -80 17 -127 20 -83 6 -87 8 -121 44
-19 20 -45 40 -57 44 -11 4 -24 13 -27 22 -3 8 -17 19 -31 24 -14 5 -25 17
-25 28 0 10 -7 27 -15 38 -21 27 -20 155 2 197 12 25 17 71 21 202 4 140 8
176 23 205 30 55 21 211 -12 218 -8 1 -18 0 -22 -4z"/>
<path d="M2117 1344 c-3 -4 -4 -25 -1 -48 7 -49 -12 -76 -52 -76 -29 0 -39 20
-38 78 1 34 -2 42 -15 40 -9 -2 -16 -15 -17 -34 -1 -17 -4 -39 -8 -50 -5 -16
3 -28 33 -52 42 -34 71 -39 117 -22 54 21 68 67 37 123 -24 43 -41 55 -56 41z"/>
<path d="M2514 1265 c-7 -18 13 -291 26 -349 5 -23 14 -62 20 -88 7 -28 10
-104 8 -180 -3 -123 -5 -136 -28 -168 -80 -113 -136 -146 -268 -159 -77 -8
-96 -16 -72 -31 25 -16 112 -11 195 10 97 25 150 65 199 155 l37 64 -4 183
c-2 117 -8 191 -16 205 -10 20 -16 67 -37 291 -7 66 -45 108 -60 67z"/>
<path d="M2325 1179 c-4 -5 -9 -137 -11 -292 l-5 -282 -26 -37 c-18 -27 -33
-38 -52 -38 -14 -1 -37 -7 -51 -15 -30 -17 -169 -19 -245 -4 -27 6 -181 14
-340 18 -174 5 -299 12 -311 19 -28 15 -255 26 -274 13 -24 -16 0 -31 61 -37
30 -3 90 -14 134 -25 60 -15 132 -21 285 -25 113 -3 237 -12 277 -20 103 -20
432 -20 459 1 10 8 30 15 44 15 23 0 56 31 84 79 24 39 35 173 31 366 -3 110
-7 212 -11 228 -6 30 -38 54 -49 36z"/>
<path d="M2710 956 c0 -2 15 -15 33 -28 l32 -23 -16 25 c-14 22 -49 40 -49 26z"/>
<path d="M2666 923 c-24 -25 24 -80 58 -67 22 9 15 28 -12 32 -12 2 -22 10
-22 17 0 16 -14 27 -24 18z"/>
<path d="M1953 803 c-7 -2 -13 -13 -13 -23 0 -16 10 -18 108 -17 l107 2 1 -35
c1 -50 2 -52 24 -40 13 7 20 21 20 40 0 18 8 34 21 44 12 8 18 19 14 26 -5 8
-12 7 -25 -5 -17 -15 -21 -15 -49 -1 -29 15 -177 22 -208 9z"/>
<path d="M757 763 c-21 -21 1 -60 72 -128 42 -40 113 -64 136 -45 25 21 17 36
-26 50 -55 18 -127 75 -135 105 -6 24 -32 34 -47 18z"/>
<path d="M1238 633 c-24 -6 -23 -20 3 -34 17 -9 23 -8 30 2 16 26 1 41 -33 32z"/>
<path d="M1030 620 c0 -11 50 -11 95 0 24 6 17 8 -32 9 -36 0 -63 -3 -63 -9z"/>
<path d="M799 339 c-10 -6 -7 -9 14 -9 29 0 35 5 14 13 -8 3 -20 1 -28 -4z"/>
<path d="M3320 1986 c0 -14 5 -28 10 -31 6 -4 10 7 10 24 0 17 -4 31 -10 31
-5 0 -10 -11 -10 -24z"/>
<path d="M3063 1975 c-3 -9 -3 -19 1 -22 7 -7 36 16 36 28 0 15 -30 10 -37 -6z"/>
<path d="M253 3423 c-3 -7 -10 -13 -17 -13 -6 0 -24 -14 -39 -30 -24 -25 -29
-38 -29 -83 1 -50 3 -54 53 -99 65 -60 94 -63 102 -12 5 31 2 40 -26 68 -18
17 -44 37 -59 44 -19 8 -28 19 -28 34 0 32 48 78 82 78 24 0 30 -5 35 -30 7
-37 19 -45 46 -32 41 19 102 31 125 25 13 -3 31 -22 43 -44 22 -44 34 -49 42
-17 6 21 -29 75 -69 109 -23 19 -254 20 -261 2z"/>
<path d="M522 2153 c-18 -13 -30 -14 -57 -6 -41 13 -100 3 -100 -17 0 -19 49
-24 112 -11 86 18 151 36 159 44 15 15 -91 6 -114 -10z"/>
<path d="M214 1235 c-7 -17 -40 -20 -49 -5 -10 17 -23 11 -18 -8 2 -10 -5 -28
-16 -41 -25 -28 -27 -51 -6 -51 8 0 15 5 15 11 0 14 25 35 60 51 25 12 34 14
78 17 12 0 22 7 22 15 0 26 -77 36 -86 11z"/>
<path d="M342 1242 c-13 -4 -23 -11 -24 -17 0 -13 108 -49 127 -41 21 8 19 26
-3 26 -11 0 -27 9 -37 20 -19 21 -25 22 -63 12z"/>
<path d="M106 1033 c7 -49 27 -83 49 -83 7 0 18 -7 25 -15 7 -8 21 -15 31 -15
12 0 21 -10 25 -25 4 -17 10 -23 18 -17 6 5 30 12 53 16 34 5 44 3 52 -11 5
-10 12 -15 16 -11 11 10 -26 58 -44 58 -27 0 -33 12 -14 26 15 10 11 13 -32
19 -74 10 -79 12 -98 45 -16 26 -62 60 -82 60 -3 0 -3 -21 1 -47z"/>
</g>
</svg>
